<?xml version="1.0" encoding="utf-8"?>
<!-- Uploaded to: SVG Repo, www.svgrepo.com, Generator: SVG Repo Mixer Tools -->
<svg width="800px" height="800px" viewBox="0 0 1024 1024" class="icon"  version="1.1" xmlns="http://www.w3.org/2000/svg"><path d="M0 736a128 128 0 0 0 128 128h768a128 128 0 0 0 128-128H0z" fill="#EAEAEA" /><path d="M896 832H128a127.68 127.68 0 0 1-123.456-96H0a128 128 0 0 0 128 128h768a128 128 0 0 0 128-128h-4.544A127.68 127.68 0 0 1 896 832z" fill="" /><path d="M960 704V288a64 64 0 0 0-64-64H128a64 64 0 0 0-64 64v416h896z" fill="#EACA44" /><path d="M352 160a64 64 0 0 0-64 64h128a64 64 0 0 0-64-64zM512 160a64 64 0 0 0-64 64h128a64 64 0 0 0-64-64zM672 160a64 64 0 0 0-64 64h128a64 64 0 0 0-64-64z" fill="#EF4D4D" /><path d="M64 672h896v32H64z" fill="" /><path d="M64 416h896v64H64zM64 544h896v64H64z" fill="#EAEAEA" /><path d="M64 288v62.56a30.208 30.208 0 0 0 8.672 1.44c11.008 0 21.952-7.712 21.952-7.712L152.672 304c6.72-3.68 9.76-3.744 16 0l58.048 40.288s10.944 7.712 21.952 7.712 21.952-7.712 21.952-7.712L328.672 304c6.72-3.68 9.76-3.744 16 0l58.048 40.288s10.944 7.712 21.952 7.712 21.952-7.712 21.952-7.712L504.672 304c6.72-3.68 9.76-3.744 16 0l58.048 40.288s10.944 7.712 21.952 7.712 21.952-7.712 21.952-7.712L680.672 304c6.72-3.68 9.76-3.744 16 0l58.048 40.288s10.944 7.712 21.952 7.712 21.952-7.712 21.952-7.712L856.672 304a17.6 17.6 0 0 1 7.904-2.688 15.04 15.04 0 0 1 7.584 2.688l58.048 40.288s10.944 7.712 21.952 7.712a30.368 30.368 0 0 0 7.84-1.184V288a64 64 0 0 0-64-64H128a64 64 0 0 0-64 64z" fill="#4F3923" /></svg>