<?xml version="1.0" encoding="iso-8859-1"?>
<!-- Uploaded to: SVG Repo, www.svgrepo.com, Generator: SVG Repo Mixer Tools -->
<svg height="800px" width="800px" version="1.1" id="Layer_1" xmlns="http://www.w3.org/2000/svg" xmlns:xlink="http://www.w3.org/1999/xlink" 
	 viewBox="0 0 512 512" xml:space="preserve">
<circle style="fill:#F8F6F4;" cx="256" cy="256" r="170.667"/>
<circle style="fill:#F1EDE8;" cx="256" cy="256" r="162.133"/>
<circle style="fill:#E3DCD2;" cx="256" cy="256" r="110.933"/>
<circle style="fill:#F1EDE8;" cx="256" cy="256" r="76.8"/>
<path style="fill:#F36280;" d="M204.8,264.533c0-28.277,22.923-76.8,51.2-76.8c28.277,0,51.2,48.523,51.2,76.8
	s-22.923,51.2-51.2,51.2S204.8,292.811,204.8,264.533z"/>
<g>
	<path style="fill:#FFBDC7;" d="M305.008,247.424c-10.803,15.485-28.737,25.643-49.008,25.643s-38.205-10.158-49.008-25.643
		c-1.424,6.099-2.192,11.942-2.192,17.109c0,2.145,0.147,4.256,0.403,6.332c13.55,11.978,31.333,19.268,50.797,19.268
		c19.464,0,37.247-7.291,50.797-19.268c0.256-2.077,0.403-4.187,0.403-6.332C307.2,259.366,306.432,253.523,305.008,247.424z"/>
	<path style="fill:#FFBDC7;" d="M218.763,217.323c-2.845,5.036-5.327,10.39-7.379,15.796c12.587,9.018,27.986,14.348,44.617,14.348
		c16.63,0,32.03-5.33,44.617-14.349c-2.052-5.406-4.533-10.761-7.379-15.796C283.018,225.495,270.075,230.4,256,230.4
		C241.925,230.4,228.982,225.495,218.763,217.323z"/>
</g>
<path style="fill:#F9C900;" d="M76.8,102.4c-4.713,0-8.533,3.821-8.533,8.533v59.733c0,4.705-3.828,8.533-8.533,8.533H51.2v-68.267
	c0-4.713-3.821-8.533-8.533-8.533s-8.533,3.821-8.533,8.533V179.2H25.6c-4.705,0-8.533-3.828-8.533-8.533v-59.733
	c0-4.713-3.821-8.533-8.533-8.533S0,106.221,0,110.933v59.733c0,14.115,11.485,25.6,25.6,25.6h8.533V307.2
	c0,4.713,3.821,8.533,8.533,8.533s8.533-3.821,8.533-8.533V196.267h8.533c14.115,0,25.6-11.485,25.6-25.6v-59.733
	C85.333,106.221,81.513,102.4,76.8,102.4z"/>
<path style="fill:#F9AA0C;" d="M34.133,307.2c0,4.713,3.821,8.533,8.533,8.533s8.533-3.821,8.533-8.533v-17.067H34.133V307.2z"/>
<path style="fill:#C971C2;" d="M17.067,307.2v76.224c0,14.352,11.745,26.444,26.095,26.172c13.91-0.265,25.105-11.622,25.105-25.596
	v-76.8c0-4.713-3.821-8.533-8.533-8.533H25.6C20.887,298.667,17.067,302.487,17.067,307.2z"/>
<path style="fill:#AB5DA9;" d="M34.133,383.423v-84.756H25.6c-4.713,0-8.533,3.821-8.533,8.533v76.223
	c0,14.353,11.745,26.445,26.095,26.172c2.846-0.054,5.575-0.579,8.122-1.489C41.303,404.47,34.133,394.637,34.133,383.423z"/>
<path style="fill:#F9C900;" d="M496.609,88.815c-12.176,16.598-25.489,38.636-35.809,66.197
	c-15.467,41.306-17.908,78.187-17.374,102.617c0.101,4.628,3.902,8.316,8.531,8.316h8.843v117.478
	c0,14.353,11.745,26.445,26.095,26.172C500.805,409.331,512,397.973,512,384V93.894C512,85.667,501.475,82.18,496.609,88.815z"/>
<g>
	<path style="fill:#F9AA0C;" d="M496.609,88.815c-12.176,16.598-25.489,38.636-35.809,66.197
		c-15.467,41.306-17.908,78.187-17.374,102.617c0.101,4.628,3.902,8.316,8.531,8.316h8.843l0,0
		c-1.243-23.876-0.274-64.624,17.067-110.933c9.763-26.074,22.202-47.195,33.825-63.453
		C509.932,85.07,500.985,82.849,496.609,88.815z"/>
	<path style="fill:#F9AA0C;" d="M460.8,290.4v93.023c0,14.353,11.745,26.445,26.095,26.172C500.805,409.331,512,397.973,512,384
		v-93.6H460.8z"/>
</g>
<path style="fill:#C971C2;" d="M460.8,298.667v84.757c0,14.352,11.745,26.444,26.095,26.172C500.805,409.331,512,397.973,512,384
	v-85.333H460.8z"/>
<path style="fill:#AB5DA9;" d="M477.867,383.423v-84.756H460.8v84.756c0,14.353,11.745,26.445,26.095,26.172
	c2.846-0.054,5.575-0.579,8.122-1.489C485.037,404.47,477.867,394.637,477.867,383.423z"/>
</svg>