<?xml version="1.0" encoding="iso-8859-1"?>
<!-- Uploaded to: SVG Repo, www.svgrepo.com, Generator: SVG Repo Mixer Tools -->
<svg height="800px" width="800px" version="1.1" id="Layer_1" xmlns="http://www.w3.org/2000/svg" xmlns:xlink="http://www.w3.org/1999/xlink" 
	 viewBox="0 0 512 512" xml:space="preserve">
<path style="fill:#EBD37A;" d="M417.792,169.324c0-3.456-1.526-6.549-3.93-8.667c2.405-2.118,3.93-5.211,3.93-8.667
	c0-3.456-1.526-6.549-3.93-8.667c2.405-2.118,3.93-5.211,3.93-8.667c6.383,0,11.557-5.174,11.557-11.557
	c0-6.383-5.174-11.557-11.557-11.557c0-6.383-5.174-11.557-11.557-11.557c0-6.383-5.174-11.557-11.557-11.557
	c6.383,0,11.557-5.174,11.557-11.557c0-6.383-5.174-11.557-11.557-11.557c0-6.383-5.174-11.557-11.557-11.557
	c-4.625,0-8.604,2.723-10.451,6.648c0.238-4.727-1.425-9.533-5.027-13.134c-5.211-5.212-12.935-6.388-19.301-3.563
	c0.064-0.494,0.109-0.995,0.109-1.508c0-6.383-5.174-11.557-11.557-11.557c0-6.383-5.174-11.557-11.557-11.557
	s-11.557,5.174-11.557,11.557c-0.998,0-1.964,0.14-2.888,0.379c-3.94-7.114-11.517-11.936-20.225-11.936
	c-5.209,0-9.997,1.744-13.863,4.651c-2.108-2.817-5.46-4.651-9.25-4.651c0-6.383-5.174-11.557-11.557-11.557
	s-11.557,5.174-11.557,11.557c-3.79,0-7.143,1.832-9.25,4.651c-3.864-2.907-8.655-4.651-13.863-4.651
	c-8.709,0-16.286,4.82-20.225,11.936c-0.924-0.239-1.888-0.379-2.888-0.379c0-6.383-5.174-11.557-11.557-11.557
	s-11.557,5.174-11.557,11.557c-6.383,0-11.557,5.174-11.557,11.557c0,0.512,0.045,1.011,0.108,1.506
	c-6.366-2.823-14.093-1.647-19.306,3.565c-3.597,3.597-5.26,8.394-5.03,13.113c-1.851-3.914-5.825-6.629-10.441-6.629
	c-6.383,0-11.557,5.174-11.557,11.557c-6.383,0-11.557,5.174-11.557,11.557s5.174,11.557,11.557,11.557
	c-6.383,0-11.557,5.174-11.557,11.557c-6.383,0-11.557,5.174-11.557,11.557c-6.383,0-11.557,5.174-11.557,11.557
	c0,6.383,5.174,11.557,11.557,11.557c0,2.385,0.722,4.598,1.959,6.438c-4.503,1.579-7.737,5.855-7.737,10.897
	c0,5.042,3.234,9.318,7.737,10.897c-1.236,1.84-1.959,4.054-1.959,6.438c-6.383,0-11.557,5.174-11.557,11.557
	s5.174,11.557,11.557,11.557c0,6.383,5.174,11.557,11.557,11.557h300.471c6.383,0,11.557-5.174,11.557-11.557
	c6.383,0,11.557-5.174,11.557-11.557S424.175,169.324,417.792,169.324z"/>
<path style="fill:#D9B43A;" d="M417.792,169.324c0-3.456-1.526-6.549-3.93-8.667c2.405-2.118,3.93-5.211,3.93-8.667
	c0-3.456-1.526-6.549-3.93-8.667c2.405-2.118,3.93-5.211,3.93-8.667c6.383,0,11.557-5.174,11.557-11.557
	c0-6.383-5.174-11.557-11.557-11.557c0-6.383-5.174-11.557-11.557-11.557c0-6.383-5.174-11.557-11.557-11.557
	c6.383,0,11.557-5.174,11.557-11.557c0-6.383-5.174-11.557-11.557-11.557c0-6.383-5.174-11.557-11.557-11.557
	c-4.625,0-8.604,2.723-10.451,6.648c0.238-4.727-1.425-9.533-5.027-13.134c-5.211-5.212-12.935-6.388-19.301-3.563
	c0.064-0.494,0.109-0.995,0.109-1.508c0-6.383-5.174-11.557-11.557-11.557c0-6.383-5.174-11.557-11.557-11.557
	s-11.557,5.174-11.557,11.557c-0.998,0-1.964,0.14-2.888,0.379c-3.94-7.114-11.517-11.936-20.225-11.936
	c-5.209,0-9.997,1.744-13.863,4.651c-2.108-2.817-5.46-4.651-9.25-4.651c0-6.383-5.174-11.557-11.557-11.557
	s-11.557,5.174-11.557,11.557c6.383,0,11.557,5.174,11.557,11.557c6.383,0,11.557,5.174,11.557,11.557
	c0,0.512-0.045,1.012-0.109,1.508c6.365-2.825,14.09-1.649,19.301,3.563c3.602,3.602,5.265,8.407,5.027,13.134
	c1.847-3.924,5.826-6.648,10.451-6.648c6.383,0,11.557,5.174,11.557,11.557c6.383,0,11.557,5.174,11.557,11.557
	c0,6.383-5.174,11.557-11.557,11.557c6.383,0,11.557,5.174,11.557,11.557c6.383,0,11.557,5.174,11.557,11.557
	c6.383,0,11.557,5.174,11.557,11.557c0,6.383-5.174,11.557-11.557,11.557c0,3.456-1.526,6.549-3.93,8.667
	c2.405,2.118,3.93,5.211,3.93,8.667c0,2.162-0.597,4.178-1.63,5.907c-5.195,0.735-9.275,4.916-9.849,10.16
	c-3.078-2.793-7.151-4.509-11.633-4.509c-4.482,0-8.553,1.715-11.63,4.507c-0.634-5.785-5.531-10.285-11.483-10.285h-46.226
	c-5.953,0-10.849,4.501-11.483,10.285c-3.078-2.792-7.148-4.507-11.63-4.507s-8.553,1.715-11.63,4.507
	c-0.634-5.785-5.531-10.285-11.483-10.285c-6.383,0-11.557,5.174-11.557,11.557c-6.383,0-11.557,5.174-11.557,11.557
	c0-6.383-5.174-11.557-11.557-11.557c0-6.383-5.174-11.557-11.557-11.557c-5.953,0-10.849,4.501-11.483,10.285
	c-3.078-2.792-7.148-4.507-11.63-4.507s-8.553,1.715-11.63,4.507c-0.634-5.785-5.531-10.285-11.483-10.285
	c-6.383,0-11.557,5.174-11.557,11.557c-6.383,0-11.557,5.174-11.557,11.557s5.174,11.557,11.557,11.557
	c0,6.383,5.174,11.557,11.557,11.557c0,6.383,5.174,11.557,11.557,11.557c0,6.383,5.174,11.557,11.557,11.557
	c6.383,0,11.557-5.174,11.557-11.557c6.383,0,11.557-5.174,11.557-11.557c0,6.383,5.174,11.557,11.557,11.557
	c0,6.383,5.174,11.557,11.557,11.557s11.557-5.174,11.557-11.557c6.383,0,11.557-5.174,11.557-11.557
	c0,6.383,5.174,11.557,11.557,11.557c0,6.383,5.174,11.557,11.557,11.557s11.557-5.174,11.557-11.557
	c6.383,0,11.557-5.174,11.557-11.557c0,6.383,5.174,11.557,11.557,11.557c0,6.383,5.174,11.557,11.557,11.557
	s11.557-5.174,11.557-11.557c6.383,0,11.557-5.174,11.557-11.557c0,6.383,5.174,11.557,11.557,11.557
	c0,6.383,5.174,11.557,11.557,11.557s11.557-5.174,11.557-11.557c6.383,0,11.557-5.174,11.557-11.557
	c0,6.383,5.174,11.557,11.557,11.557c0,6.383,5.174,11.557,11.557,11.557s11.557-5.174,11.557-11.557
	c6.383,0,11.557-5.174,11.557-11.557h23.113c6.383,0,11.557-5.174,11.557-11.557c6.383,0,11.557-5.174,11.557-11.557
	S424.175,169.324,417.792,169.324z"/>
<g>
	<path style="fill:#F3E29A;" d="M140.434,65.316c0-6.383-5.174-11.557-11.557-11.557s-11.557,5.174-11.557,11.557
		c-6.383,0-11.557,5.174-11.557,11.557c0,6.383,5.174,11.557,11.557,11.557c0,6.383,5.174,11.557,11.557,11.557
		s11.557-5.174,11.557-11.557c6.383,0,11.557-5.174,11.557-11.557S146.817,65.316,140.434,65.316z"/>
	<path style="fill:#F3E29A;" d="M163.548,111.542c0-6.383-5.174-11.557-11.557-11.557s-11.557,5.174-11.557,11.557
		c-6.383,0-11.557,5.174-11.557,11.557c0,6.383,5.174,11.557,11.557,11.557c0,6.383,5.174,11.557,11.557,11.557
		s11.557-5.174,11.557-11.557c6.383,0,11.557-5.174,11.557-11.557C175.105,116.716,169.93,111.542,163.548,111.542z"/>
	<path style="fill:#F3E29A;" d="M209.774,65.316c0-6.383-5.174-11.557-11.557-11.557s-11.557,5.174-11.557,11.557
		c-6.383,0-11.557,5.174-11.557,11.557c0,6.383,5.174,11.557,11.557,11.557c0,6.383,5.174,11.557,11.557,11.557
		s11.557-5.174,11.557-11.557c6.383,0,11.557-5.174,11.557-11.557S216.157,65.316,209.774,65.316z"/>
	<path style="fill:#F3E29A;" d="M279.113,134.656c0-6.383-5.174-11.557-11.557-11.557S256,128.272,256,134.656
		c-6.383,0-11.557,5.174-11.557,11.557s5.174,11.557,11.557,11.557c0,6.383,5.174,11.557,11.557,11.557s11.557-5.174,11.557-11.557
		c6.383,0,11.557-5.174,11.557-11.557C290.669,139.829,285.496,134.656,279.113,134.656z"/>
	<path style="fill:#F3E29A;" d="M279.113,42.203c0-6.383-5.174-11.557-11.557-11.557S256,35.82,256,42.203
		c-6.383,0-11.557,5.174-11.557,11.557S249.616,65.317,256,65.317c0,6.383,5.174,11.557,11.557,11.557s11.557-5.174,11.557-11.557
		c6.383,0,11.557-5.174,11.557-11.557S285.496,42.203,279.113,42.203z"/>
</g>
<path style="fill:#EBD37A;" d="M383.122,111.542c0-6.383-5.174-11.557-11.557-11.557s-11.557,5.174-11.557,11.557
	c-6.383,0-11.557,5.174-11.557,11.557c0,6.383,5.174,11.557,11.557,11.557c0,6.383,5.174,11.557,11.557,11.557
	s11.557-5.174,11.557-11.557c6.383,0,11.557-5.174,11.557-11.557C394.679,116.716,389.505,111.542,383.122,111.542z"/>
<path style="fill:#AB5034;" d="M378.278,187.709c-3.737,3.764-9.686,3.764-13.423,0c-4.186-4.217-9.989-6.828-16.401-6.828
	l-23.113,23.113l-23.113-23.113c-6.411,0-12.214,2.611-16.401,6.828c-3.737,3.764-9.686,3.764-13.423,0
	c-4.186-4.217-9.989-6.828-16.401-6.828l-22.913,23.113l-23.313-23.113c-6.411,0-12.214,2.611-16.401,6.828
	c-3.737,3.764-9.686,3.764-13.423,0c-4.186-4.217-9.989-6.828-16.401-6.828l-23.402,23.113l-22.825-23.113
	c-4.559,0-8.81,1.32-12.391,3.599c-7.912,5.034-11.661,14.627-9.892,23.836l53.346,277.4c2.093,10.883,11.615,18.749,22.697,18.749
	h169.832l30.348-138.63l23.413-184.953C388.268,180.881,382.465,183.492,378.278,187.709z"/>
<g>
	<path style="fill:#E7E4CD;" d="M318.827,187.709c3.737,3.764,9.686,3.764,13.423,0c4.186-4.217,9.989-6.828,16.401-6.828
		l-38.137,323.583H282.78l19.647-323.583C308.837,180.881,314.64,183.492,318.827,187.709z"/>
	<path style="fill:#E7E4CD;" d="M407.269,184.48c7.912,5.034,11.661,14.627,9.892,23.836l-53.346,277.4
		c-2.093,10.883-11.615,18.749-22.697,18.749h-4.022l57.783-323.583C399.438,180.881,403.689,182.201,407.269,184.48z"/>
	<path style="fill:#E7E4CD;" d="M133.922,187.709c3.737,3.764,9.686,3.764,13.423,0c4.186-4.217,9.989-6.828,16.401-6.828
		l38.137,323.583h-26.581L117.52,180.881C123.933,180.881,129.735,183.492,133.922,187.709z"/>
	<path style="fill:#E7E4CD;" d="M226.375,187.709c3.737,3.764,9.686,3.764,13.423,0c4.186-4.217,9.989-6.828,16.401-6.828v323.583
		h-26.58l-19.647-323.583C216.385,180.881,222.187,183.492,226.375,187.709z"/>
</g>
<path style="opacity:0.3;fill:#493023;enable-background:new    ;" d="M407.269,184.48c-3.582-2.279-7.832-3.599-12.391-3.599h-0.2
	c-6.411,0-12.214,2.611-16.401,6.828c-1.868,1.881-4.29,2.822-6.711,2.822v1.905L332.13,451.891
	c-2.574,16.941-17.141,29.46-34.276,29.46H147.546l0.839,4.365c2.093,10.883,11.615,18.749,22.697,18.749h169.836h0.2
	c11.082,0,20.604-7.866,22.697-18.749l0.839-4.365l52.507-273.036C418.932,199.108,415.181,189.514,407.269,184.48z"/>
<path style="fill:#AB5034;" d="M172.793,406.235h-11.557c-4.788,0-8.667-3.881-8.667-8.667c0-4.786,3.879-8.667,8.667-8.667h11.557
	c4.788,0,8.667,3.881,8.667,8.667C181.46,402.354,177.581,406.235,172.793,406.235z"/>
<path style="fill:#8D472E;" d="M350.764,406.235h-11.557c-4.788,0-8.667-3.881-8.667-8.667c0-4.786,3.879-8.667,8.667-8.667h11.557
	c4.788,0,8.667,3.881,8.667,8.667C359.431,402.354,355.551,406.235,350.764,406.235z"/>
<circle cx="198.214" cy="371.568" r="17.334"/>
<circle cx="313.783" cy="371.568" r="17.334"/>
<path d="M94.208,199.971c-10.526,0-19.09-8.564-19.09-19.09c0-7.272,4.088-13.607,10.086-16.829
	c-2.721-3.333-4.308-7.565-4.308-12.062c0-4.496,1.586-8.728,4.308-12.061c-5.998-3.222-10.086-9.558-10.086-16.829
	c0-10.526,8.564-19.09,19.09-19.09c4.16,0,7.533,3.373,7.533,7.533s-3.373,7.533-7.533,7.533c-2.219,0-4.024,1.805-4.024,4.024
	c0,2.218,1.805,4.023,4.024,4.023c4.16,0,7.533,3.373,7.533,7.533c0,1.014,0.369,1.776,0.678,2.236
	c1.301,1.936,1.632,4.365,0.897,6.578c-0.735,2.213-2.455,3.96-4.656,4.733c-1.342,0.47-2.697,1.824-2.697,3.788
	s1.354,3.318,2.696,3.788c2.201,0.771,3.92,2.519,4.657,4.732c0.736,2.213,0.406,4.642-0.896,6.578
	c-0.309,0.461-0.678,1.222-0.678,2.238c0,4.16-3.373,7.533-7.533,7.533c-2.219,0-4.024,1.805-4.024,4.023
	c0,2.219,1.805,4.024,4.024,4.024c4.16,0,7.533,3.373,7.533,7.533S98.369,199.971,94.208,199.971z"/>
<path d="M117.321,95.961c-10.526,0-19.09-8.564-19.09-19.09c0-8.274,5.291-15.336,12.668-17.978
	c2.643-7.377,9.704-12.668,17.978-12.668c2.111,0,4.175,0.356,6.12,1.02c1.089-1.925,2.438-3.711,4.025-5.298
	c4.945-4.943,11.717-7.466,18.52-7.228c2.081-4.867,6.13-8.7,11.139-10.495c2.643-7.377,9.705-12.668,17.978-12.668
	c6.04,0,11.432,2.819,14.934,7.211c5.441-4.582,12.402-7.211,19.736-7.211c4.557,0,8.97,0.994,13.016,2.91
	c1.156-0.721,2.387-1.319,3.668-1.781C240.653,5.299,247.719,0,256.001,0c10.525,0,19.09,8.564,19.09,19.089
	c0,4.16-3.372,7.533-7.533,7.533s-7.533-3.373-7.533-7.533c0-2.218-1.805-4.023-4.024-4.023s-4.024,1.805-4.024,4.023
	c0,4.16-3.373,7.533-7.533,7.533c-1.271,0-2.443,0.594-3.216,1.627c-1.198,1.604-2.986,2.664-4.968,2.947
	c-1.982,0.285-3.996-0.233-5.595-1.437c-2.729-2.052-5.957-3.138-9.335-3.138c-5.66,0-10.885,3.086-13.634,8.051
	c-1.665,3.006-5.154,4.502-8.478,3.644c-0.361-0.093-0.688-0.139-1-0.139c-4.16,0-7.533-3.373-7.533-7.533
	c0-2.219-1.805-4.024-4.023-4.024c-2.219,0-4.024,1.805-4.024,4.024c0,4.16-3.373,7.533-7.533,7.533
	c-2.218,0-4.023,1.805-4.023,4.023c0,0.119,0.016,0.303,0.047,0.549c0.346,2.698-0.79,5.373-2.971,6.997
	c-2.18,1.626-5.067,1.949-7.554,0.846c-3.694-1.638-8.087-0.833-10.926,2.007c-1.964,1.964-2.97,4.598-2.832,7.419
	c0.175,3.589-2.21,6.802-5.695,7.675c-3.484,0.874-7.102-0.838-8.639-4.086c-0.529-1.12-1.762-2.317-3.632-2.317
	c-2.218,0-4.023,1.805-4.023,4.024c0,4.16-3.373,7.533-7.533,7.533c-2.219,0-4.024,1.805-4.024,4.023
	c0,2.219,1.805,4.024,4.024,4.024c4.16,0,7.533,3.373,7.533,7.533S121.482,95.961,117.321,95.961z"/>
<path d="M413.865,168.19c-2.088,0-4.165-0.863-5.655-2.553c-2.75-3.122-2.45-7.882,0.672-10.632
	c0.514-0.453,1.377-1.447,1.377-3.015s-0.863-2.561-1.377-3.014c-1.623-1.43-2.553-3.489-2.553-5.652s0.93-4.223,2.553-5.652
	c0.514-0.453,1.377-1.447,1.377-3.015c0-4.16,3.372-7.533,7.533-7.533c2.218,0,4.023-1.805,4.023-4.023
	c0-2.219-1.805-4.024-4.023-4.024c-4.161,0-7.533-3.373-7.533-7.533c0-2.218-1.805-4.023-4.024-4.023
	c-4.161,0-7.533-3.373-7.533-7.533c0-2.219-1.805-4.024-4.024-4.024c-4.161,0-7.533-3.373-7.533-7.533s3.372-7.533,7.533-7.533
	c2.219,0,4.024-1.805,4.024-4.023c0-2.219-1.805-4.024-4.024-4.024c-4.161,0-7.533-3.373-7.533-7.533
	c0-2.218-1.805-4.023-4.024-4.023c-1.873,0-3.106,1.199-3.634,2.322c-1.532,3.256-5.159,4.975-8.643,4.101
	c-3.491-0.873-5.878-4.093-5.696-7.688c0.143-2.823-0.863-5.461-2.829-7.427c-2.838-2.84-7.226-3.643-10.918-2.006
	c-2.49,1.105-5.382,0.78-7.565-0.851c-2.182-1.63-3.315-4.312-2.96-7.013c0.03-0.234,0.046-0.412,0.046-0.53
	c0-2.218-1.805-4.023-4.024-4.023c-4.161,0-7.533-3.373-7.533-7.533c0-2.219-1.805-4.024-4.023-4.024
	c-2.219,0-4.024,1.805-4.024,4.024c0,4.16-3.372,7.533-7.533,7.533c-0.313,0-0.64,0.045-0.998,0.139
	c-3.328,0.86-6.813-0.637-8.478-3.642c-2.751-4.967-7.976-8.054-13.636-8.054c-4.161,0-7.533-3.373-7.533-7.533
	s3.372-7.533,7.533-7.533c7.333,0,14.294,2.63,19.736,7.212c3.499-4.392,8.893-7.212,14.934-7.212
	c8.273,0,15.336,5.291,17.977,12.668c5.01,1.795,9.059,5.629,11.14,10.495c6.778-0.24,13.571,2.283,18.514,7.228
	c1.588,1.588,2.938,3.374,4.027,5.299c1.946-0.665,4.011-1.022,6.124-1.022c8.274,0,15.337,5.291,17.978,12.668
	c7.378,2.643,12.668,9.705,12.668,17.978c0,4.34-1.455,8.347-3.905,11.556c1.178,1.545,2.126,3.273,2.793,5.135
	c5.37,1.923,9.633,6.187,11.557,11.556c7.376,2.643,12.667,9.705,12.667,17.978c0,8.276-5.294,15.34-12.675,17.981
	c-0.275,0.767-0.601,1.517-0.971,2.243c1.359,2.658,2.09,5.624,2.09,8.667c0,5.47-2.363,10.69-6.484,14.32
	C417.411,167.572,415.633,168.19,413.865,168.19z"/>
<path d="M340.918,511.999H171.089c-14.669,0-27.325-10.455-30.095-24.86l-53.346-277.4c-2.375-12.357,2.947-25.062,13.245-31.615
	c4.911-3.125,10.594-4.776,16.435-4.776c8.227,0,15.95,3.215,21.747,9.054c0.49,0.493,1.013,0.597,1.365,0.597
	c0.353,0,0.876-0.103,1.366-0.598c5.796-5.838,13.519-9.053,21.746-9.053s15.95,3.215,21.747,9.054
	c0.49,0.493,1.013,0.597,1.366,0.597s0.876-0.103,1.366-0.598c5.796-5.838,13.519-9.053,21.747-9.053s15.95,3.215,21.747,9.054
	c0.49,0.493,1.013,0.597,1.365,0.597c0.353,0,0.876-0.103,1.366-0.598c5.796-5.838,13.519-9.053,21.746-9.053
	c8.228,0,15.951,3.215,21.748,9.054c0.489,0.493,1.012,0.597,1.365,0.597c0.353,0,0.875-0.103,1.365-0.598
	c5.796-5.838,13.519-9.053,21.746-9.053c8.228,0,15.952,3.215,21.748,9.054c0.489,0.493,1.012,0.597,1.364,0.597l0,0
	c0.354,0,0.876-0.103,1.367-0.598c5.795-5.838,13.518-9.053,21.745-9.053c8.226,0,15.95,3.215,21.747,9.054
	c0.49,0.493,1.013,0.597,1.365,0.597s0.875-0.103,1.365-0.598c5.797-5.838,13.521-9.053,21.747-9.053
	c5.841,0,11.525,1.652,16.434,4.777c10.297,6.551,15.621,19.256,13.245,31.614l-53.345,277.4
	C368.242,501.544,355.586,511.999,340.918,511.999z M117.328,188.415c-2.971,0-5.858,0.837-8.347,2.422
	c-5.13,3.264-7.757,9.717-6.538,16.059l53.346,277.4c1.408,7.322,7.843,12.638,15.299,12.638h169.828
	c7.457,0,13.891-5.315,15.299-12.639l53.345-277.4c1.219-6.341-1.407-12.794-6.538-16.058c-2.49-1.584-5.376-2.422-8.347-2.422
	c-4.182,0-8.109,1.634-11.056,4.602c-3.233,3.255-7.514,5.048-12.057,5.048c-4.543,0-8.824-1.793-12.057-5.047
	c-2.947-2.968-6.873-4.603-11.056-4.603s-8.108,1.634-11.055,4.602c-3.234,3.256-7.515,5.048-12.058,5.048c0,0,0,0-0.001,0
	c-4.542,0-8.824-1.793-12.056-5.047c-2.947-2.969-6.872-4.603-11.056-4.603c-4.182,0-8.108,1.634-11.054,4.602
	c-3.233,3.256-7.514,5.048-12.057,5.048c-4.542,0-8.825-1.792-12.058-5.047c-2.948-2.969-6.873-4.603-11.056-4.603
	c-4.182,0-8.109,1.634-11.055,4.602c-3.233,3.255-7.515,5.048-12.057,5.048l0,0c-4.542,0-8.824-1.793-12.056-5.047
	c-2.947-2.968-6.873-4.603-11.056-4.603c-4.183,0-8.109,1.634-11.056,4.602c-3.232,3.255-7.514,5.048-12.056,5.048
	c-4.542,0-8.825-1.792-12.057-5.047c-2.947-2.968-6.873-4.603-11.056-4.603c-4.182,0-8.109,1.634-11.055,4.602
	c-3.233,3.255-7.515,5.048-12.057,5.048l0,0c-4.542,0-8.824-1.793-12.056-5.047C125.437,190.049,121.511,188.415,117.328,188.415z"
	/>
<path d="M201.675,512c-3.767,0-7.02-2.82-7.472-6.652l-12.258-104.009c-0.487-4.131,2.468-7.877,6.599-8.363
	c4.134-0.489,7.876,2.468,8.363,6.599l12.258,104.009c0.487,4.131-2.468,7.877-6.599,8.363C202.267,511.982,201.969,512,201.675,512
	z"/>
<path d="M182.607,350.208c-3.767,0-7.02-2.82-7.472-6.652l-19.068-161.792c-0.487-4.132,2.468-7.876,6.599-8.363
	c4.131-0.492,7.876,2.468,8.363,6.599l19.068,161.792c0.487,4.131-2.468,7.877-6.599,8.363
	C183.199,350.19,182.901,350.208,182.607,350.208z"/>
<path d="M256.001,511.999c-4.16,0-7.533-3.372-7.533-7.533V180.881c0-4.16,3.373-7.533,7.533-7.533c4.161,0,7.533,3.373,7.533,7.533
	v323.584C263.534,508.626,260.161,511.999,256.001,511.999z"/>
<path d="M310.326,512c-0.295,0-0.592-0.018-0.892-0.053c-4.131-0.486-7.087-4.232-6.599-8.363l12.258-104.009
	c0.486-4.132,4.237-7.083,8.363-6.599c4.131,0.486,7.087,4.232,6.599,8.363l-12.258,104.009C317.346,509.18,314.092,512,310.326,512
	z"/>
<path d="M329.394,350.208c-0.295,0-0.592-0.018-0.892-0.053c-4.131-0.486-7.087-4.232-6.599-8.363l19.068-161.792
	c0.486-4.132,4.234-7.085,8.363-6.599c4.131,0.487,7.087,4.231,6.599,8.363l-19.068,161.792
	C336.414,347.387,333.16,350.208,329.394,350.208z"/>
</svg>